# xmcd
#
# Track frame offsets:
#	150
#	22304
#	41003
#	63353
#	80619
#	97408
#	118313
#	134231
#	159829
#	178266
#	205921
#
# Disc length: 2945 seconds
#
# Revision: 0
# Processed by: cddbd v1.5.2PL0 Copyright (c) Steve Scherf et al.
# Submitted via: EasyCDDAExtractor 11.5.0.1
#
DISCID=ab0b7f0b
DTITLE=Clarence Spady - Just Between Us
DYEAR=2008
DGENRE=Blues
TTITLE0=I'll Never Sell You Out
TTITLE1=Enough of You
TTITLE2=Just Between Us
TTITLE3=King of Hearts
TTITLE4=Won't Be This Way Always
TTITLE5=I'll Go
TTITLE6=Cut Them Loose
TTITLE7=Be Your Enough
TTITLE8=24 7 Luv
TTITLE9=E-Mail
TTITLE10=Candy
EXTD=
EXTT0=
EXTT1=
EXTT2=
EXTT3=
EXTT4=
EXTT5=
EXTT6=
EXTT7=
EXTT8=
EXTT9=
EXTT10=
PLAYORDER=
